HIERARCHY
ROOT SpineBase
{
  OFFSET 0.000000 0.000000 0.000000
  CHANNELS 6 Xposition Yposition Zposition Zrotation Xrotation Yrotation
  JOINT SpineMid
  {
    OFFSET -0.000000 29.893021 0.000000
    CHANNELS 3 Zrotation Xrotation Yrotation
    JOINT SpineShoulder
    {
      OFFSET 0.068742 22.196796 -1.009251
      CHANNELS 3 Zrotation Xrotation Yrotation
      JOINT Neck
      {
        OFFSET 0.087822 7.340272 -0.675886
        CHANNELS 3 Zrotation Xrotation Yrotation
        JOINT Head
        {
          OFFSET 4.568296 13.471789 1.758681
          CHANNELS 3 Zrotation Xrotation Yrotation
          End Site
          {
            OFFSET 0 0 0
          }
        }
      }
      JOINT ShoulderLeft
      {
        OFFSET -8.411152 -2.803507 -13.174241
        CHANNELS 3 Zrotation Xrotation Yrotation
        JOINT ElbowLeft
        {
          OFFSET -3.974233 -24.045272 -5.483988
          CHANNELS 3 Zrotation Xrotation Yrotation
          JOINT WristLeft
          {
            OFFSET 5.034690 -24.218357 -2.630409
            CHANNELS 3 Zrotation Xrotation Yrotation
            JOINT HandLeft
            {
              OFFSET 0.810178 -3.745203 0.661443
              CHANNELS 3 Zrotation Xrotation Yrotation
              JOINT HandTipLeft
              {
                OFFSET 1.210107 -5.488805 0.117134
                CHANNELS 3 Zrotation Xrotation Yrotation
                End Site
                {
                  OFFSET 0 0 0
                }
              }
              JOINT ThumbLeft
              {
                OFFSET -2.622368 -1.077471 -2.434493
                CHANNELS 3 Zrotation Xrotation Yrotation
                End Site
                {
                  OFFSET 0 0 0
                }
              }
            }
          }
        }
      }
      JOINT ShoulderRight
      {
        OFFSET 10.541417 -5.423016 11.198003
        CHANNELS 3 Zrotation Xrotation Yrotation
        JOINT ElbowRight
        {
          OFFSET 1.577612 -27.598485 4.173730
          CHANNELS 3 Zrotation Xrotation Yrotation
          JOINT WristRight
          {
            OFFSET 1.676412 -23.125129 -2.693245
            CHANNELS 3 Zrotation Xrotation Yrotation
            JOINT HandRight
            {
              OFFSET -0.133603 -3.717041 0.395647
              CHANNELS 3 Zrotation Xrotation Yrotation
              JOINT HandTipRight
              {
                OFFSET -1.291371 -4.773564 -0.089930
                CHANNELS 3 Zrotation Xrotation Yrotation
                End Site
                {
                  OFFSET 0 0 0
                }
              }
              JOINT ThumbRight
              {
                OFFSET -1.986946 2.021363 -2.649356
                CHANNELS 3 Zrotation Xrotation Yrotation
                End Site
                {
                  OFFSET 0 0 0
                }
              }
            }
          }
        }
      }
    }
  }
  JOINT HipLeft
  {
    OFFSET -3.832946 1.884805 -7.879664
    CHANNELS 3 Zrotation Xrotation Yrotation
    JOINT KneeLeft
    {
      OFFSET -7.400532 -26.151023 -1.610282
      CHANNELS 3 Zrotation Xrotation Yrotation
      JOINT AnkleLeft
      {
        OFFSET -7.796407 -33.802984 4.904824
        CHANNELS 3 Zrotation Xrotation Yrotation
        JOINT FootLeft
        {
          OFFSET 3.932002 -7.908349 -1.361114
          CHANNELS 3 Zrotation Xrotation Yrotation
          End Site
          {
            OFFSET 0 0 0
          }
        }
      }
    }
  }
  JOINT HipRight
  {
    OFFSET 4.737324 0.042493 0.992060
    CHANNELS 3 Zrotation Xrotation Yrotation
    JOINT KneeRight
    {
      OFFSET -3.127025 -27.304680 7.472841
      CHANNELS 3 Zrotation Xrotation Yrotation
      JOINT AnkleRight
      {
        OFFSET -11.605385 -29.939756 0.641092
        CHANNELS 3 Zrotation Xrotation Yrotation
        JOINT FootRight
        {
          OFFSET 1.817722 -8.566440 -4.076290
          CHANNELS 3 Zrotation Xrotation Yrotation
          End Site
          {
            OFFSET 0 0 0
          }
        }
      }
    }
  }
}
MOTION
Frames: 11
Frame Time: 0.033333
-46.086485 69.413513 332.451079 -1.155126 -0.912297 -37.413532 -0.618354 0.278520 37.348245 -0.024663 0.002872 -0.068208 10.862945 -8.444063 2.652883 0.000000 0.000000 0.000000 -47.260824 56.143302 24.454176 6.468295 -2.802517 21.814916 -8.753428 6.882455 -10.763496 -1.164750 -4.654193 2.621428 0.000000 0.000000 0.000000 0.000000 0.000000 0.000000 68.155903 -42.792610 33.882304 4.941768 0.181053 -20.376325 1.871356 21.966204 5.762014 -1.578048 -10.793171 10.591310 0.000000 0.000000 0.000000 0.000000 0.000000 0.000000 3.944911 7.692397 35.887242 -5.060946 -0.188043 0.691735 -4.298206 -2.406106 0.905075 0.000000 0.000000 0.000000 -1.596863 4.207053 37.141241 1.323849 -0.077819 -0.864466 13.809645 -19.494776 -6.589814 0.000000 0.000000 0.000000
-46.221841 69.026346 332.294338 -1.898739 -1.232490 -34.088476 -0.643181 0.125963 33.976494 -0.091618 -0.011146 -0.111020 12.162716 -8.461962 2.843570 0.000000 0.000000 0.000000 -38.087647 35.617891 15.533896 0.462811 3.664281 13.388044 -4.955876 11.237703 -7.575654 0.019307 -8.297543 2.175706 0.000000 0.000000 0.000000 0.000000 0.000000 0.000000 57.668995 -46.482928 28.445650 1.821753 0.658973 -14.844829 10.446821 21.030071 1.465644 -1.721552 -9.175606 9.988248 0.000000 0.000000 0.000000 0.000000 0.000000 0.000000 5.117089 8.323547 32.415820 -5.351618 -0.044018 0.677158 -4.398168 -1.976617 1.237701 0.000000 0.000000 0.000000 -0.584881 3.694821 33.792363 1.581624 1.399848 -1.006003 14.121490 -19.839836 -6.459708 0.000000 0.000000 0.000000
-46.309548 68.664484 332.036667 -2.808605 -1.678808 -29.860460 -0.664231 0.017465 29.686888 -0.119937 -0.021686 -0.155265 13.192897 -8.226385 2.965436 0.000000 0.000000 0.000000 -34.411236 17.870710 11.959837 -11.307346 4.163622 5.560503 -4.052942 23.266359 -0.089577 5.777401 -13.446723 3.040687 0.000000 0.000000 0.000000 0.000000 0.000000 0.000000 51.079056 -49.865833 24.958193 -2.872044 2.730879 -9.765997 18.564581 17.825529 -1.990636 0.418560 -7.249023 8.959057 0.000000 0.000000 0.000000 0.000000 0.000000 0.000000 6.675729 8.917047 27.992270 -5.710195 0.116898 0.658610 -3.683956 -2.194576 1.103158 0.000000 0.000000 0.000000 0.489453 3.017277 29.514977 2.008976 2.877970 -1.057402 13.517182 -18.347593 -6.079106 0.000000 0.000000 0.000000
-46.343183 68.362997 331.727853 -3.702209 -2.073436 -26.018503 -0.658491 -0.013198 25.781337 -0.108023 -0.014230 -0.192581 13.617694 -8.353693 3.234083 0.000000 0.000000 0.000000 -36.054240 5.102899 11.135831 -17.497584 3.432561 0.934332 -12.277905 23.574398 -1.664710 15.515574 -10.912449 8.761435 0.000000 0.000000 0.000000 0.000000 0.000000 0.000000 46.145959 -51.648992 21.864212 -4.526560 2.320661 -7.015754 16.318334 20.207763 -2.363232 6.007206 -10.512127 10.251598 0.000000 0.000000 0.000000 0.000000 0.000000 0.000000 8.304563 9.273348 23.956795 -6.105646 0.272014 0.633467 -2.550642 -2.360658 0.921479 0.000000 0.000000 0.000000 1.344732 2.385806 25.596865 2.516577 3.817020 -0.966919 12.330864 -15.565052 -5.621519 0.000000 0.000000 0.000000
-46.287391 68.114909 331.419893 -4.462641 -2.457177 -22.914544 -0.636496 0.021753 22.619482 -0.074177 0.003700 -0.220070 13.447785 -8.560183 3.524450 0.000000 0.000000 0.000000 -41.275329 -4.390421 11.024918 -21.619721 4.878228 -0.400681 -4.344020 12.172750 -14.967183 8.944120 -1.974753 12.928893 0.000000 0.000000 0.000000 0.000000 0.000000 0.000000 42.996350 -51.431315 19.353318 -8.662604 6.744156 -3.706220 21.100214 17.433745 -4.012527 7.237439 -11.474669 10.147463 0.000000 0.000000 0.000000 0.000000 0.000000 0.000000 9.605925 9.427436 20.704900 -6.341897 0.391335 0.608433 -1.623707 -3.126109 0.438098 0.000000 0.000000 0.000000 1.885094 1.937610 22.397793 3.029127 4.174837 -0.747637 11.624457 -13.486577 -5.561271 0.000000 0.000000 0.000000
-46.116959 67.961708 331.159128 -4.965948 -2.810160 -20.690763 -0.626773 0.125933 20.354977 0.018530 0.056165 -0.230594 12.590505 -8.971314 3.863070 0.000000 0.000000 0.000000 -51.624835 -7.619935 12.508613 -18.617775 4.086161 -3.901737 -7.503302 13.575037 -16.759115 8.269882 -4.305752 12.472935 0.000000 0.000000 0.000000 0.000000 0.000000 0.000000 43.474773 -51.392189 19.349194 -10.401873 3.588339 -2.211074 23.331577 20.399130 -6.734810 9.362507 -13.376776 11.338628 0.000000 0.000000 0.000000 0.000000 0.000000 0.000000 10.299486 9.510929 18.385438 -6.330433 0.357307 0.611418 -0.043720 -3.242697 0.156741 0.000000 0.000000 0.000000 1.825498 1.823106 20.016744 3.938784 3.586881 -0.265769 10.278839 -10.684814 -5.559386 0.000000 0.000000 0.000000
-45.857609 67.995288 331.033070 -5.115672 -3.133769 -20.024920 -0.604532 0.254285 19.673394 0.139393 0.091641 -0.223236 10.986216 -9.381415 4.171732 0.000000 0.000000 0.000000 -62.079818 -5.731961 15.559202 -18.042928 4.439546 -3.880815 -6.300268 13.819543 -21.825262 6.333956 -2.845560 18.001807 0.000000 0.000000 0.000000 0.000000 0.000000 0.000000 45.201017 -53.181790 20.907106 -7.995950 -0.703376 -3.537404 21.223440 24.087275 -7.317813 8.733524 -14.661801 13.401997 0.000000 0.000000 0.000000 0.000000 0.000000 0.000000 10.125852 9.716229 17.687503 -6.031191 0.150068 0.648796 1.054447 -4.044642 -0.440629 0.000000 0.000000 0.000000 1.321079 2.334468 19.202089 4.594453 2.422525 0.240057 9.708440 -8.767416 -5.777816 0.000000 0.000000 0.000000
-45.586080 68.163712 331.077417 -4.901349 -3.334433 -20.899929 -0.513059 0.441139 20.565246 0.258505 0.115708 -0.197031 8.704059 -9.761715 4.397338 0.000000 0.000000 0.000000 -73.957527 1.737934 22.222066 -16.935201 4.683607 -0.670236 -5.721181 16.310473 -26.801100 3.133158 -0.389660 31.455221 0.000000 0.000000 0.000000 0.000000 0.000000 0.000000 50.608279 -56.239295 25.720185 -4.531513 -6.078052 -5.936729 18.147526 27.704805 -7.220555 8.252843 -16.794966 17.593693 0.000000 0.000000 0.000000 0.000000 0.000000 0.000000 9.192100 10.002426 18.595695 -5.536519 -0.206287 0.723598 1.499941 -4.864388 -1.001920 0.000000 0.000000 0.000000 0.487007 3.334891 19.977732 4.952012 0.794640 0.720390 9.863808 -7.825901 -6.252296 0.000000 0.000000 0.000000
-45.374890 68.475954 331.230667 -4.468838 -3.420785 -23.255311 -0.465835 0.522505 22.951988 0.300317 0.106314 -0.170163 6.249050 -10.092518 4.589789 0.000000 0.000000 0.000000 -86.602323 15.962545 35.228276 -15.336924 3.181681 5.802798 -3.729618 16.946500 -36.623571 3.358962 0.651695 44.893306 0.000000 0.000000 0.000000 0.000000 0.000000 0.000000 63.589212 -59.922160 36.802506 -2.617816 -10.939476 -7.934013 14.909931 20.024937 -1.510211 4.514120 -10.322841 19.573440 0.000000 0.000000 0.000000 0.000000 0.000000 0.000000 7.847842 10.169156 21.078927 -5.038892 -0.415537 0.760539 1.480574 -4.637190 -1.001649 0.000000 0.000000 0.000000 -0.468980 4.668842 22.316434 4.940703 -1.141872 1.125858 9.988227 -7.432404 -6.684588 0.000000 0.000000 0.000000
-45.226978 68.865836 331.385382 -4.090910 -3.435892 -25.962271 -0.505781 0.589187 25.688464 0.364898 0.141028 -0.147175 4.921768 -10.177704 4.599337 0.000000 0.000000 0.000000 -98.529929 29.862144 50.950355 -13.066623 2.553989 16.872457 -3.684945 18.812838 -46.424860 8.417018 1.434693 58.458044 0.000000 0.000000 0.000000 0.000000 0.000000 0.000000 83.308722 -60.468631 52.867569 -0.117699 -15.066782 -11.551748 12.063303 5.584941 12.229632 4.219814 1.339593 18.566848 0.000000 0.000000 0.000000 0.000000 0.000000 0.000000 6.647657 10.142846 23.951583 -4.613409 -0.482334 0.764189 0.726512 -3.578316 -0.528909 0.000000 0.000000 0.000000 -1.285834 5.802074 25.058252 4.749886 -2.714345 1.375792 11.915323 -10.911006 -8.178883 0.000000 0.000000 0.000000
-45.142041 69.441680 331.581865 -3.663558 -3.385953 -28.964039 -0.521903 0.633972 28.723686 0.421493 0.147089 -0.122390 4.476038 -9.566480 4.298988 0.000000 0.000000 0.000000 -111.440045 42.884928 69.825862 -9.026219 1.609213 28.844071 -4.840473 27.122446 -40.399438 19.693509 -8.056300 51.508718 0.000000 0.000000 0.000000 0.000000 0.000000 0.000000 101.982492 -56.486946 66.510545 3.383398 -16.536761 -18.724298 13.434068 -4.058567 30.450133 3.185561 12.052177 17.607228 0.000000 0.000000 0.000000 0.000000 0.000000 0.000000 5.514724 9.948484 27.137735 -4.240189 -0.416374 0.742604 -1.665587 -2.387494 0.272595 0.000000 0.000000 0.000000 -2.112187 6.779281 28.138460 4.458389 -4.094075 1.522782 9.774949 -5.791657 -6.819593 0.000000 0.000000 0.000000
